# xmcd
# 
# Track frame offsets:
#     150
#     17225
#     35937
#     61702
#     80370
#     109250
#     129007
#     137122
#     152337
#     169172
# 
# Disc length: 2330
# 
# Revision: 9
# Processed by: cddbd v1.5.2PL0 Copyright (c) Steve Scherf et al.
# Submitted via: fre:ac v1.1beta1pre5
# 
DISCID=7909180a
DTITLE=Queen - Queen (Japan)
DYEAR=1973
DGENRE=Rock
TTITLE0=Keep Yourself Alive
TTITLE1=Doing All Right
TTITLE2=Great King Rat
TTITLE3=My Fairy King
TTITLE4=Liar
TTITLE5=The Night Comes Down
TTITLE6=Modern Times Rock 'n' Roll
TTITLE7=Son and Daughter
TTITLE8=Jesus
TTITLE9=Seven Seas of Rhye
EXTD=
EXTT0=
EXTT1=
EXTT2=
EXTT3=
EXTT4=
EXTT5=
EXTT6=
EXTT7=
EXTT8=
EXTT9=
PLAYORDER=
